<svg width="1400" height="875" viewBox="0 0 1400 875" fill="none" xmlns="http://www.w3.org/2000/svg">
  <rect width="1400" height="875" fill="#070614"/>
  <rect x="94" y="76" width="1212" height="723" rx="44" fill="#111020" stroke="rgba(255,255,255,.14)" stroke-width="2"/>
  <text x="152" y="160" fill="#F8F7FF" font-family="Arial, sans-serif" font-size="44" font-weight="700">Website Chatbot</text>
  <text x="152" y="206" fill="#A855F7" font-family="Arial, sans-serif" font-size="18" letter-spacing="4">CONVERSATIONAL AI FOR CUSTOMER INQUIRIES</text>
  <rect x="152" y="282" width="454" height="402" rx="32" fill="rgba(255,255,255,.05)" stroke="rgba(255,255,255,.1)"/>
  <rect x="196" y="332" width="258" height="58" rx="29" fill="rgba(255,255,255,.12)"/>
  <rect x="282" y="424" width="280" height="58" rx="29" fill="url(#p)"/>
  <rect x="196" y="516" width="340" height="58" rx="29" fill="rgba(255,255,255,.12)"/>
  <rect x="282" y="608" width="228" height="58" rx="29" fill="url(#p)"/>
  <g transform="translate(762 250)">
    <circle cx="190" cy="190" r="190" fill="rgba(124,58,237,.18)"/>
    <rect x="58" y="35" width="264" height="324" rx="38" fill="#080713" stroke="rgba(168,85,247,.45)" stroke-width="3"/>
    <circle cx="190" cy="155" r="58" fill="url(#p)"/>
    <path d="M160 159h60M190 129v60" stroke="white" stroke-width="10" stroke-linecap="round"/>
    <rect x="105" y="246" width="170" height="22" rx="11" fill="rgba(255,255,255,.34)"/>
    <rect x="127" y="288" width="126" height="22" rx="11" fill="rgba(255,255,255,.18)"/>
  </g>
  <defs>
    <linearGradient id="p" x1="0" y1="0" x2="1" y2="1">
      <stop stop-color="#A855F7"/>
      <stop offset="1" stop-color="#7C3AED"/>
    </linearGradient>
  </defs>
</svg>
