<svg width="1400" height="875" viewBox="0 0 1400 875" fill="none" xmlns="http://www.w3.org/2000/svg">
  <rect width="1400" height="875" fill="#0B0918"/>
  <rect x="82" y="74" width="1236" height="727" rx="44" fill="url(#a)" stroke="rgba(255,255,255,.16)" stroke-width="2"/>
  <text x="134" y="154" fill="#F8F7FF" font-family="Arial, sans-serif" font-size="42" font-weight="700">Diesel Opticals</text>
  <text x="134" y="205" fill="#A855F7" font-family="Arial, sans-serif" font-size="18" letter-spacing="4">PREMIUM EYEWEAR EXPERIENCE</text>
  <rect x="134" y="273" width="468" height="346" rx="28" fill="rgba(255,255,255,.06)" stroke="rgba(168,85,247,.35)"/>
  <path d="M202 449C249 391 323 392 368 450C413 392 489 391 535 449" stroke="#A855F7" stroke-width="18" stroke-linecap="round"/>
  <circle cx="268" cy="450" r="74" stroke="#F8F7FF" stroke-width="18"/>
  <circle cx="468" cy="450" r="74" stroke="#F8F7FF" stroke-width="18"/>
  <rect x="684" y="273" width="504" height="96" rx="22" fill="rgba(124,58,237,.22)"/>
  <rect x="684" y="405" width="390" height="38" rx="19" fill="rgba(255,255,255,.18)"/>
  <rect x="684" y="476" width="520" height="38" rx="19" fill="rgba(255,255,255,.12)"/>
  <rect x="684" y="574" width="220" height="74" rx="18" fill="url(#b)"/>
  <text x="722" y="620" fill="white" font-family="Arial, sans-serif" font-size="24" font-weight="700">Book Visit</text>
  <defs>
    <linearGradient id="a" x1="82" y1="74" x2="1318" y2="801" gradientUnits="userSpaceOnUse">
      <stop stop-color="#141026"/>
      <stop offset="1" stop-color="#05040B"/>
    </linearGradient>
    <linearGradient id="b" x1="684" y1="574" x2="904" y2="648" gradientUnits="userSpaceOnUse">
      <stop stop-color="#A855F7"/>
      <stop offset="1" stop-color="#7C3AED"/>
    </linearGradient>
  </defs>
</svg>
