<svg width="1400" height="875" viewBox="0 0 1400 875" fill="none" xmlns="http://www.w3.org/2000/svg">
  <rect width="1400" height="875" fill="#080713"/>
  <rect x="86" y="80" width="1228" height="715" rx="46" fill="#111020" stroke="rgba(255,255,255,.14)" stroke-width="2"/>
  <circle cx="1030" cy="438" r="260" fill="rgba(124,58,237,.18)"/>
  <rect x="150" y="142" width="420" height="42" rx="21" fill="rgba(255,255,255,.12)"/>
  <text x="150" y="272" fill="#F8F7FF" font-family="Georgia, serif" font-size="78" font-weight="700">Lavish</text>
  <text x="150" y="360" fill="#A855F7" font-family="Georgia, serif" font-size="78" font-style="italic">Caterers</text>
  <text x="154" y="432" fill="rgba(255,255,255,.72)" font-family="Arial, sans-serif" font-size="28">Elegant catering menus, event inquiries, and premium presentation.</text>
  <rect x="150" y="528" width="246" height="78" rx="39" fill="url(#g)"/>
  <text x="202" y="577" fill="white" font-family="Arial, sans-serif" font-size="24" font-weight="700">Plan Event</text>
  <g transform="translate(760 220)">
    <rect x="0" y="0" width="370" height="440" rx="34" fill="rgba(255,255,255,.08)" stroke="rgba(168,85,247,.35)"/>
    <circle cx="185" cy="155" r="96" fill="rgba(255,255,255,.12)" stroke="#A855F7" stroke-width="10"/>
    <path d="M105 156H265M185 76V236" stroke="rgba(255,255,255,.38)" stroke-width="8"/>
    <rect x="68" y="306" width="234" height="22" rx="11" fill="rgba(255,255,255,.38)"/>
    <rect x="98" y="354" width="174" height="22" rx="11" fill="rgba(255,255,255,.2)"/>
  </g>
  <defs>
    <linearGradient id="g" x1="150" y1="528" x2="396" y2="606" gradientUnits="userSpaceOnUse">
      <stop stop-color="#A855F7"/>
      <stop offset="1" stop-color="#7C3AED"/>
    </linearGradient>
  </defs>
</svg>
